<?xml version="1.0" encoding="UTF-8"?> <svg xmlns="http://www.w3.org/2000/svg" xmlns:xlink="http://www.w3.org/1999/xlink" viewBox="0 0 294.08 55.61"><defs><style>.cls-1{fill:url(#New_Gradient_Swatch_1);}.cls-2{fill:#020202;}.cls-3{fill:url(#New_Gradient_Swatch_1-2);}.cls-4{fill:url(#New_Gradient_Swatch_1-3);}</style><linearGradient id="New_Gradient_Swatch_1" y1="16.32" x2="57.51" y2="16.32" gradientUnits="userSpaceOnUse"><stop offset="0" stop-color="#f3ba35"></stop><stop offset="0.14" stop-color="#fbe472"></stop><stop offset="0.17" stop-color="#f0d360"></stop><stop offset="0.29" stop-color="#cd9824"></stop><stop offset="0.37" stop-color="#dfae3a"></stop><stop offset="0.43" stop-color="#e7b844"></stop><stop offset="0.48" stop-color="#ebc04c"></stop><stop offset="0.56" stop-color="#f5d661"></stop><stop offset="0.62" stop-color="#feeb75"></stop><stop offset="0.7" stop-color="#efc354"></stop><stop offset="0.73" stop-color="#e9b548"></stop><stop offset="0.87" stop-color="#865915"></stop><stop offset="1" stop-color="#d09628"></stop></linearGradient><linearGradient id="New_Gradient_Swatch_1-2" x1="52.44" y1="44.69" x2="52.44" y2="46.06" xlink:href="#New_Gradient_Swatch_1"></linearGradient><linearGradient id="New_Gradient_Swatch_1-3" x1="10" y1="33.71" x2="35.01" y2="33.71" xlink:href="#New_Gradient_Swatch_1"></linearGradient></defs><g id="Layer_2" data-name="Layer 2"><g id="Layer_1-2" data-name="Layer 1"><path class="cls-1" d="M45.43,10.73H6.74A1.33,1.33,0,0,0,6,11a1.37,1.37,0,0,0-.47.67A1.3,1.3,0,0,1,3.2,12L.25,8A1.32,1.32,0,0,1,.19,6.59l1.7-2.8H55a1.31,1.31,0,0,1,1.15.7L57.36,6.7a1.29,1.29,0,0,1,0,1.26L45.25,28.84,42.6,24a4.71,4.71,0,0,1,.06-4.64l3.89-6.67A1.3,1.3,0,0,0,45.43,10.73Z"></path><path class="cls-2" d="M75.12,5.74,52.83,44.86l-.78,1.37-.1.16-3.11,5.15a1.3,1.3,0,0,1-2.24,0L26.67,17.16a1.3,1.3,0,0,1,1.1-1.95l5.7-.1L36.6,20.3l7.16,12.36.36.63,3.51,6L65.68,7.93a1.32,1.32,0,0,0,0-1.22l-.51-1a1.3,1.3,0,0,1,1.17-1.88H74A1.3,1.3,0,0,1,75.12,5.74Z"></path><path class="cls-3" d="M52.83,44.86a1.08,1.08,0,0,1-.13.29l-.65,1.08Z"></path><path class="cls-4" d="M20.15,17.35l-.38.56a1.3,1.3,0,0,0-.06,1.37L34.84,45.84a1.3,1.3,0,0,1,0,1.28l-2.42,4.32a1.3,1.3,0,0,1-2.26,0l-20-34.18a1.31,1.31,0,0,1,1.13-2h7.76A1.3,1.3,0,0,1,20.15,17.35Z"></path><path class="cls-2" d="M88,30.34V28.67c1.43,0,2.38-.3,2.85-.89s.71-1.79.71-3.6V7.9a6.7,6.7,0,0,1-.11-.7A2.38,2.38,0,0,0,91,6.27c-.44-.67-1.38-1-2.82-1V3.6H99.6a12.74,12.74,0,0,1,6.12,1.18,7,7,0,0,1,3.9,6.61A7,7,0,0,1,107.13,17a10,10,0,0,1-6.71,2.13c-.89,0-1.53,0-1.93-.05s-1-.12-1.74-.24l-1.49-.23V24c0,2,.26,3.27.76,3.8s1.63.87,3.36,1v1.56Zm7.3-24.55V16.28a21.36,21.36,0,0,0,4.2.6,6.18,6.18,0,0,0,4.37-1.52,5.22,5.22,0,0,0,1.63-4,5,5,0,0,0-1.92-4.23,8.56,8.56,0,0,0-5.23-1.33Z"></path><path class="cls-2" d="M110.14,20.55A10.63,10.63,0,0,1,112.86,13,10,10,0,0,1,127,13a10.49,10.49,0,0,1,2.77,7.53A10.58,10.58,0,0,1,127.05,28,9.15,9.15,0,0,1,120,31a9.36,9.36,0,0,1-7.1-2.91A10.48,10.48,0,0,1,110.14,20.55ZM120,12.17a5,5,0,0,0-4.25,2.35,10.07,10.07,0,0,0-1.69,6,10.1,10.1,0,0,0,1.65,6,5.07,5.07,0,0,0,4.29,2.3,5,5,0,0,0,4.22-2.34,10,10,0,0,0,1.67-6,10.23,10.23,0,0,0-1.65-6A5,5,0,0,0,120,12.17Z"></path><path class="cls-2" d="M132.54,30.53V22.29h1.82a13.2,13.2,0,0,0,1.07,4,5.07,5.07,0,0,0,1.91,1.91,5.24,5.24,0,0,0,2.73.76,4.4,4.4,0,0,0,2.89-1,3.1,3.1,0,0,0,1.23-2.49,2.28,2.28,0,0,0-.65-1.68,6.78,6.78,0,0,0-2.47-1.28l-1.85-.63a20.55,20.55,0,0,1-3.94-1.78,5.15,5.15,0,0,1-2.44-4.45,5.1,5.1,0,0,1,1.87-4.08,7.07,7.07,0,0,1,4.77-1.6,7.53,7.53,0,0,1,1.92.19l2,.44,1.71.26a4.73,4.73,0,0,0,1.7-.41v6.9H145c-.45-3.48-2.14-5.23-5.08-5.23a3.75,3.75,0,0,0-2.56.85,2.54,2.54,0,0,0-1,2.12,2.34,2.34,0,0,0,1.11,2,17.94,17.94,0,0,0,3.26,1.37l1.9.63c3.41,1.11,5.11,3,5.11,5.71a5.5,5.5,0,0,1-2.15,4.49,8.62,8.62,0,0,1-5.6,1.75,11.44,11.44,0,0,1-2.67-.26l-1.85-.45L134,30.19A4.79,4.79,0,0,0,132.54,30.53Z"></path><path class="cls-2" d="M149.79,30.34V28.75c1.36,0,2.25-.29,2.69-.88s.64-1.79.64-3.65V5.49c0-1.76-.11-2.14-.33-2.56-.42-.82-1.42-1.22-3-1.22V0l5.11.66a2.06,2.06,0,0,1,1.79,2.2h0l0,2.11v8.27a10.06,10.06,0,0,1,2.93-2.3,8.59,8.59,0,0,1,3.74-.89,7,7,0,0,1,5,1.89,4.86,4.86,0,0,1,1.37,2.25A14.21,14.21,0,0,1,170,17.8v6.57a8.33,8.33,0,0,0,.39,3.08,2.8,2.8,0,0,0,1.91,1.3v1.59h-9.09V28.78h.26a2.76,2.76,0,0,0,2.37-.89,6,6,0,0,0,.67-3.41V18a7.16,7.16,0,0,0-.74-3.78,3.81,3.81,0,0,0-3.38-1.71,5.42,5.42,0,0,0-4,1.71c-1.24,1.28-1.86,3.51-1.86,6.67v5.23a3,3,0,0,0,.56,1.6,3.06,3.06,0,0,0,2.74,1.07v1.56Z"></path><path class="cls-2" d="M174,5.19V3.6h11.35V5.3q-3.63,0-3.63,2.82a19,19,0,0,0,.67,3.86L185,22.11l.41,1.78.4,3.56.12,0,.11-1.08.07-.77c.08-.5.41-1.76,1-3.79l3.82-12.42a44.57,44.57,0,0,0,1.19-5.64l3.15-.78,1.56,5.53,4.16,13,.63,2.26c.09.42.18,1,.26,1.65a21.28,21.28,0,0,1,.11,2.17l.15,0c0-.24,0-.56,0-.94s.08-.8.15-1.24c.2-1.29.33-2.12.41-2.51s.22-1,.44-1.76l2.49-10c.1-.4.18-.86.26-1.38A10.43,10.43,0,0,0,206,8.27a2.72,2.72,0,0,0-.82-2.19,2.76,2.76,0,0,0-1.11-.57,5.9,5.9,0,0,0-1.67-.21V3.6H212.8V5.42a3.15,3.15,0,0,0-2.59,1,17.93,17.93,0,0,0-1.6,4.49L204.9,24.7l-.7,2.71-.56,3.08-4.08.52a28.28,28.28,0,0,0-1.15-5.57l-3.89-11.75a22.4,22.4,0,0,1-.69-2.69,16.9,16.9,0,0,1-.28-3.06c0,.42,0,.76,0,1a6.34,6.34,0,0,1-.23,1.07l-.37,1.63-.22,1a9.07,9.07,0,0,1-.3,1l-3.82,12c-.19.64-.42,1.51-.68,2.61s-.43,1.85-.5,2.24l-4.12.52c-.22-1.23-.59-2.85-1.11-4.85L177.94,10c-.57-2.2-1.06-3.49-1.48-3.89A4.67,4.67,0,0,0,174,5.19Z"></path><path class="cls-2" d="M223.34,17.77V17.1q0-5-4.42-5a5.12,5.12,0,0,0-3.39,1.13,7.28,7.28,0,0,0-2,4.06h-1.63V10.5a7.75,7.75,0,0,0,1.78.33,17,17,0,0,0,2.89-.41,18.45,18.45,0,0,1,3.3-.41,8.91,8.91,0,0,1,4.75,1.23,4.58,4.58,0,0,1,1.72,1.95,8.09,8.09,0,0,1,.54,3.32v9a8.29,8.29,0,0,0,.08,1.22,2.29,2.29,0,0,0,.4,1c.47.7,1.41,1,2.82,1v1.56h-6.08l-.33-2.86-1.45,1.41A8.71,8.71,0,0,1,216.55,31a6.49,6.49,0,0,1-4.43-1.47,4.94,4.94,0,0,1-1.69-3.95,6,6,0,0,1,1.48-4A9.17,9.17,0,0,1,216.07,19a22.63,22.63,0,0,1,2.67-.68q1.41-.29,2.34-.39A18.11,18.11,0,0,1,223.34,17.77Zm0,3.26V19.92a12.4,12.4,0,0,0-2,.13c-.54.08-1.3.24-2.26.46a12.69,12.69,0,0,0-2.08.78c-1.9.87-2.85,2.16-2.85,3.89a2.79,2.79,0,0,0,1,2.19,3.46,3.46,0,0,0,1.11.6,4.66,4.66,0,0,0,1.49.22,5.1,5.1,0,0,0,4.75-2.82A9.37,9.37,0,0,0,223.34,21Z"></path><path class="cls-2" d="M228.86,12.24V10.83h9.57v1.6h-.77l-1,.14c-.79.2-1.19.82-1.19,1.86V15c.08.2.13.34.15.41l.48,1.59,2.16,6.87c.19.64.39,1.33.59,2.07l.48,2.08.56-1.67.89-2.56,2.37-6.64a12.52,12.52,0,0,0,.89-3.15,1.37,1.37,0,0,0-.54-1.2,3.38,3.38,0,0,0-1.91-.39v-1.6h8v1.63a3.22,3.22,0,0,0-1.67.78,5,5,0,0,0-1.11,1.89L246,17.28l-3.74,9c-.27.65-.74,2-1.41,4.2l-3.67.63c-.4-1.59-.62-2.46-.67-2.64-.25-.69-.42-1.18-.52-1.48l-3.41-10a16,16,0,0,0-1.71-3.82A3.54,3.54,0,0,0,228.86,12.24Z"></path><path class="cls-2" d="M267.44,20.29h-14l0,1.19a7,7,0,0,0,.43,2.56,7.53,7.53,0,0,0,1.32,2.18,5.53,5.53,0,0,0,4.48,2.19,7.82,7.82,0,0,0,3.82-1.07,8.6,8.6,0,0,0,1.19-.78c.42-.32.89-.72,1.41-1.19l1.15,1.34Q263.74,31,259,31a8.88,8.88,0,0,1-6.79-2.82,10.35,10.35,0,0,1-2.63-7.34,11.31,11.31,0,0,1,2.63-7.72,9,9,0,0,1,11.33-1.74A7.84,7.84,0,0,1,266.62,15,13.38,13.38,0,0,1,267.44,20.29Zm-12.5-5.94a8.66,8.66,0,0,0-1.34,3.71h7.94a3.47,3.47,0,0,0,1.56-.2q.3-.21.3-1.17a4.53,4.53,0,0,0-1.3-3.26A4.06,4.06,0,0,0,259,12.09,4.79,4.79,0,0,0,254.94,14.35Z"></path><path class="cls-2" d="M95.47,52.21a8.64,8.64,0,0,0-2.14-.13H88.42V52c.84-.2,1-1.14,1-2.13V45.15c0-1-.11-1.93-1-2.12V43h4.39A8.64,8.64,0,0,0,95,42.83h.15L95.57,45h-.08a2.92,2.92,0,0,0-2.93-1.85H91.35c-1.07,0-1,1-1,2v2.14h1.1c.8,0,2.13,0,2.35-1.06h.06v2.3h-.06c-.22-1-1.55-1.05-2.35-1.05h-1.1v2.41c0,1,0,2,1,2h1.73A3,3,0,0,0,96,50.05h.08l-.47,2.16Z"></path><path class="cls-2" d="M98,52.08V52c.85-.2.85-1.27.85-2.26V44.63c0-1.38.08-2.14-.72-2.2v-.07a4.51,4.51,0,0,1,1-.18c.76,0,.58.72.58,2.23v5.35c0,1,0,2.06.84,2.26v.06Z"></path><path class="cls-2" d="M102.65,48.79a3.33,3.33,0,0,1,3.46-3.34,2.64,2.64,0,0,1,2.74,2.49h-5.46a4.05,4.05,0,0,0,0,.48c0,2.83,3.55,4.12,5.67,2.45l.09.05a4.21,4.21,0,0,1-3.1,1.29A3.24,3.24,0,0,1,102.65,48.79Zm5.3-1a2.14,2.14,0,0,0-2-2.12,2.46,2.46,0,0,0-2.49,2.12Z"></path><path class="cls-2" d="M111.09,53.69c0-.81.93-1.24,2.09-1.29v0c-.78.07-1.15.56-1.06,1.17A1.91,1.91,0,0,0,114,55.2c1.81.15,2.78-.64,2.83-1.54.1-2-2.23-1.52-3.35-2.07-.72-.35-.69-.89-.27-1.27a2.53,2.53,0,0,1-1.89-2.38,2.67,2.67,0,0,1,2.94-2.5l.39,0a4.38,4.38,0,0,0,2.28-.28c.15-.13-.4-.12-.41-.59a.64.64,0,1,1,1.27,0c0,.93-1.47,1-2.56,1a2.51,2.51,0,0,1,2,2.38,2.71,2.71,0,0,1-3,2.53,3.26,3.26,0,0,1-.9-.12c-.36.33-.37.8.24,1,1.3.45,4.1-.32,4.16,1.81a1.64,1.64,0,0,1-.46,1.17,4.62,4.62,0,0,1-3.44,1C112.47,55.32,111.09,54.73,111.09,53.69Zm5.18-5.75A2.27,2.27,0,0,0,114,45.61c-1.29,0-1.89,1.1-1.8,2.34a2.53,2.53,0,0,0,1.29,2.17l.09,0a2.13,2.13,0,0,0,.86.17C115.73,50.32,116.34,49.19,116.27,47.94Z"></path><path class="cls-2" d="M119.81,50.49c0-1.33,1.3-1.69,2.63-2.08a8,8,0,0,0,1.84-.68,2.75,2.75,0,0,0-.42-1.71,1.77,1.77,0,0,0-2.42.08,1.94,1.94,0,0,0-.12,1c0,.26-.26.4-.52.4a.47.47,0,0,1-.52-.48c0-.74,1.12-1.56,2.49-1.56a2.12,2.12,0,0,1,2.4,2.32v2c0,1.39-.09,2.34,1.1,2.14V52a3.2,3.2,0,0,1-1.18.26c-.77,0-.82-.44-.81-1.47a3.28,3.28,0,0,1-2.54,1.47A1.75,1.75,0,0,1,119.81,50.49Zm4.47,0V47.93a9.5,9.5,0,0,1-1.82.67c-1,.32-1.84.62-1.84,1.53a1.42,1.42,0,0,0,1.58,1.38A2.71,2.71,0,0,0,124.28,50.48Z"></path><path class="cls-2" d="M128.1,52.08V52c.85-.2.85-1.27.85-2.26V47.89c0-1.38.07-2.14-.72-2.21v-.06a4.42,4.42,0,0,1,1-.18c.61,0,.61.47.59,1.46a3.43,3.43,0,0,1,2.71-1.46c1.63,0,1.69.92,1.69,2.43v1.89c0,1,0,2.06.85,2.26v.06h-2.58V52c.84-.2.84-1.27.84-2.26V47.91c0-1.5,0-2.19-1-2.23a3,3,0,0,0-2.49,1.63v2.45c0,1,0,2.06.85,2.26v.06Z"></path><path class="cls-2" d="M137.12,48.79a3.33,3.33,0,0,1,3.48-3.35c.53,0,1.09.13,1.34.13a1.24,1.24,0,0,0,.65-.13h.16l.47,2.07h-.08a3,3,0,0,0-2.56-1.88,2.51,2.51,0,0,0-2.64,2.82,3.37,3.37,0,0,0,5.55,2.42l.09.05a4.11,4.11,0,0,1-3.1,1.29A3.28,3.28,0,0,1,137.12,48.79Z"></path><path class="cls-2" d="M145.68,48.79a3.33,3.33,0,0,1,3.47-3.34,2.63,2.63,0,0,1,2.73,2.49h-5.46a4.05,4.05,0,0,0,0,.48c0,2.83,3.55,4.12,5.67,2.45l.09.05a4.21,4.21,0,0,1-3.1,1.29A3.25,3.25,0,0,1,145.68,48.79Zm5.3-1a2.14,2.14,0,0,0-2-2.12,2.46,2.46,0,0,0-2.49,2.12Z"></path><path class="cls-2" d="M159.25,52.08V52c.84-.2.95-1.14.95-2.13V45.15c0-1-.11-1.93-.95-2.12V43h2.84V43c-.85.19-1,1.13-1,2.12v4.74c0,1,.1,1.93,1,2.13v.06Z"></path><path class="cls-2" d="M164.3,52.08V52c.85-.2.85-1.27.85-2.26V47.89c0-1.38.08-2.14-.72-2.21v-.06a4.51,4.51,0,0,1,1-.18c.61,0,.61.47.59,1.46a3.43,3.43,0,0,1,2.71-1.46c1.63,0,1.69.92,1.69,2.43v1.89c0,1,0,2.06.85,2.26v.06h-2.58V52c.85-.2.85-1.27.85-2.26V47.91c0-1.5,0-2.19-1-2.23A3,3,0,0,0,166,47.31v2.45c0,1,0,2.06.84,2.26v.06Z"></path><path class="cls-2" d="M185.52,52.21a8.64,8.64,0,0,0-2.14-.13h-4.91V52c.85-.2.95-1.14.95-2.13V45.15c0-1-.1-1.93-.95-2.12V43h4.39a8.64,8.64,0,0,0,2.14-.13h.15l.47,2.16h-.08a2.92,2.92,0,0,0-2.93-1.85H181.4c-1.07,0-1,1-1,2v2.14h1.11c.79,0,2.12,0,2.34-1.06h.07v2.3h-.07c-.22-1-1.55-1.05-2.34-1.05h-1.11v2.41c0,1,0,2,1,2h1.73a3.07,3.07,0,0,0,2.94-1.85h.07l-.47,2.16Z"></path><path class="cls-2" d="M190.77,52.08l-1.64-4.28c-.35-.93-.73-2-1.58-2.17v-.06h2.58v.06c-.85.2-.43,1.19-.08,2.11l1.37,3.57,1.32-3.42c.35-.93.6-1.8-.12-2.26v-.06h2v.06c-.85.2-1.32,1.38-1.67,2.31l-1.59,4.14Z"></path><path class="cls-2" d="M196,48.79a3.33,3.33,0,0,1,3.46-3.34,2.64,2.64,0,0,1,2.74,2.49H196.7a2.67,2.67,0,0,0,0,.48c0,2.83,3.55,4.12,5.67,2.45l.09.05a4.21,4.21,0,0,1-3.1,1.29A3.24,3.24,0,0,1,196,48.79Zm5.3-1a2.15,2.15,0,0,0-2-2.12,2.46,2.46,0,0,0-2.49,2.12Z"></path><path class="cls-2" d="M204.4,52.08V52c.85-.2.85-1.27.85-2.26V47.89c0-1.38.08-2.14-.72-2.21v-.06a4.51,4.51,0,0,1,1-.18c.61,0,.61.47.59,1.46a3.22,3.22,0,0,1,2.59-1.46c.91,0,1.19.49,1.17.91a.65.65,0,0,1-.66.66.67.67,0,0,1-.67-.66c0-.52.53-.64-.07-.67a2.85,2.85,0,0,0-2.37,1.63v2.45c0,1,0,2.06,1,2.26v.06Z"></path><path class="cls-2" d="M211.2,54.78a.7.7,0,1,1,1.4-.09,2.53,2.53,0,0,1-.07.4s0,.06.07.06l.23,0c1.14-.3,1.62-1.55,2-2.47l.13-.32-1.85-4.52c-.38-.92-.79-2-1.64-2.17v-.06H214v.06a.56.56,0,0,0-.48.6,5,5,0,0,0,.47,1.51l1.35,3.44,1.27-3.29a4.11,4.11,0,0,0,.33-1.37,1,1,0,0,0-.45-.89v-.06h2v.06c-.84.2-1.31,1.38-1.66,2.31l-.94,2.46-1,2.52c-.45,1.2-1,2.24-2.21,2.6C212,55.73,211.22,55.47,211.2,54.78Z"></path><path class="cls-2" d="M225.7,52.21l-.47-2.07h.08A3.31,3.31,0,0,0,228.59,52c1.76,0,2.67-.72,2.67-1.87a1.28,1.28,0,0,0,0-.19c-.26-2.48-5.85-1.59-5.85-4.76,0-1.47,1.42-2.36,2.92-2.36.75,0,1.51.13,1.85.13a1.61,1.61,0,0,0,.73-.13h.15l.47,2.07h-.08A3.25,3.25,0,0,0,228.26,43c-1.16,0-2.37.56-2.25,1.92.19,2.26,5.81,1.31,5.81,4.83,0,1.55-1.29,2.42-3.27,2.42-.86,0-1.63-.13-2-.13a1.76,1.76,0,0,0-.73.13Z"></path><path class="cls-2" d="M234.62,50.49V45.57h-.7v-.2l.63,0c.54,0,.57-.41.83-1.06h.13v1.08l1.52,0v.13h-1.52v5c0,.67.09,1.27.89,1.36a1,1,0,0,0,1.12-.58l.07,0a1.41,1.41,0,0,1-1.38.84C235,52.24,234.62,51.51,234.62,50.49Z"></path><path class="cls-2" d="M239.42,52.08V52c.85-.2.85-1.27.85-2.26V47.89c0-1.38.07-2.14-.72-2.21v-.06a4.42,4.42,0,0,1,1-.18c.76,0,.57.71.57,2.23v2.09c0,1,0,2.06.85,2.26v.06Zm.53-8.43a.7.7,0,0,1,.71-.69.69.69,0,0,1,.7.69.7.7,0,0,1-.7.71A.71.71,0,0,1,240,43.65Z"></path><path class="cls-2" d="M244.59,50.49V45.57h-.7v-.2l.63,0c.54,0,.57-.41.83-1.06h.13v1.08l1.52,0v.13h-1.52v5c0,.67.09,1.27.89,1.36a1,1,0,0,0,1.12-.58l.07,0a1.42,1.42,0,0,1-1.38.84C245,52.24,244.59,51.51,244.59,50.49Z"></path><path class="cls-2" d="M249.25,48.79a3.33,3.33,0,0,1,3.47-3.35c.54,0,1.1.13,1.35.13a1.24,1.24,0,0,0,.65-.13h.16l.46,2.07h-.07a3,3,0,0,0-2.56-1.88,2.51,2.51,0,0,0-2.64,2.82,3.36,3.36,0,0,0,5.55,2.42l.09.05a4.13,4.13,0,0,1-3.1,1.29A3.28,3.28,0,0,1,249.25,48.79Z"></path><path class="cls-2" d="M257.64,52.08V52c.85-.2.85-1.27.85-2.26V44.63c0-1.38.07-2.14-.72-2.2v-.07a4.34,4.34,0,0,1,1-.18c.75,0,.57.72.57,2.23v2.5a3.51,3.51,0,0,1,2.73-1.47c1.62,0,1.69.92,1.69,2.43v1.89c0,1,0,2.06.85,2.26v.06h-2.58V52c.84-.2.84-1.27.84-2.26V47.91c0-1.5,0-2.19-1-2.23a3,3,0,0,0-2.49,1.65v2.43c0,1,0,2.06.85,2.26v.06Z"></path><path class="cls-2" d="M100.24,49.78V44.43c0-1.51.19-2.23-.57-2.23h-.48a4.5,4.5,0,0,0-1,.19v.06c.79.07.71.82.71,2.2v5.14c0,1,0,2-.84,2.25v.07h3V52C100.24,51.84,100.24,50.77,100.24,49.78Z"></path><path class="cls-2" d="M109.53,50.91l0,0h-.08l0,0,0,0,0,0,0,0,0,0,0,0,0,0h-.13l0,0a3.52,3.52,0,0,1-2.08.74,3.26,3.26,0,0,1-3.11-3.17,2.52,2.52,0,0,1,0-.48h5.46a2.63,2.63,0,0,0-2.74-2.49h-.47a3.34,3.34,0,0,0-3.47,3.34,3.25,3.25,0,0,0,3.36,3.43h.48a4.25,4.25,0,0,0,3.1-1.29l-.09,0ZM108,47.75h-4a2.47,2.47,0,0,1,2.32-2.1A2.19,2.19,0,0,1,108,47.75Z"></path><path class="cls-2" d="M118.29,44.61a.61.61,0,0,0-.66-.66h-.06s0,0,0,0h-.32a.62.62,0,0,0-.66.66c0,.47.56.46.42.59a3.18,3.18,0,0,1-1.74.31h-.07l-.39,0h-.47a2.68,2.68,0,0,0-3,2.5,2.57,2.57,0,0,0,1.89,2.39c-.42.37-.44.91.27,1.26,1.12.55,3.46.09,3.35,2.07,0,.82-.86,1.55-2.38,1.55a1.91,1.91,0,0,1-1.82-1.58c-.09-.62.28-1.1,1.06-1.18v0h-.48c-1.16.05-2.08.48-2.08,1.29,0,1,1.38,1.63,2.73,1.7h.48a4.62,4.62,0,0,0,3.44-1,1.59,1.59,0,0,0,.45-1.17c0-2.13-2.85-1.36-4.15-1.82-.57-.19-.6-.61-.3-.93a3.79,3.79,0,0,0,.49,0h.47A2.71,2.71,0,0,0,117.71,48a2.52,2.52,0,0,0-2-2.38C116.82,45.61,118.29,45.53,118.29,44.61Zm-4.17,5.56-.09,0A2.5,2.5,0,0,1,112.74,48c-.08-1.19.47-2.24,1.65-2.33a2.29,2.29,0,0,1,1.93,2.3c.07,1.2-.49,2.28-1.67,2.37A2.17,2.17,0,0,1,114.12,50.17Z"></path><path class="cls-2" d="M134.78,49.78V47.89c0-1.51-.07-2.43-1.7-2.43h-.47a3.45,3.45,0,0,0-2.23.92c0-.61-.11-.9-.59-.9h-.48a5.15,5.15,0,0,0-1,.18v.07c.8.06.72.82.72,2.2v1.88c0,1,0,2-.85,2.25v.07h3.06V52c-.85-.2-.85-1.27-.85-2.26V47.33a3.12,3.12,0,0,1,2.24-1.61c.78.14.82.82.82,2.2v1.85c0,1,0,2-.85,2.25v.07h3.06V52C134.78,51.84,134.78,50.77,134.78,49.78Z"></path><path class="cls-2" d="M144,50.91l0,0h-.08l0,0,0,0,0,0,0,0,0,0,0,0,0,0h-.13l0,0a3.48,3.48,0,0,1-2.09.78,3.25,3.25,0,0,1-3-3.18,2.51,2.51,0,0,1,2.41-2.81,3.08,3.08,0,0,1,2.31,1.85h.55l-.46-2.07h-.64a1,1,0,0,1-.44.12,8,8,0,0,0-1.07-.1h-.48a3.33,3.33,0,0,0-3.48,3.35,3.3,3.3,0,0,0,3.36,3.43H141a4.13,4.13,0,0,0,3.1-1.29l-.09,0Z"></path><path class="cls-2" d="M152.56,50.91l0,0h-.08l0,0,0,0,0,0,0,0,0,0,0,0,0,0h-.13l0,0a3.52,3.52,0,0,1-2.08.74,3.26,3.26,0,0,1-3.11-3.17,3.73,3.73,0,0,1,0-.48h5.46a2.63,2.63,0,0,0-2.74-2.49h-.47a3.34,3.34,0,0,0-3.47,3.34,3.25,3.25,0,0,0,3.36,3.43h.48a4.21,4.21,0,0,0,3.1-1.29l-.09,0ZM151,47.75H147a2.47,2.47,0,0,1,2.33-2.1A2.19,2.19,0,0,1,151,47.75Z"></path><path class="cls-2" d="M171,49.78V47.89c0-1.51-.06-2.43-1.69-2.43h-.48a3.47,3.47,0,0,0-2.23.92c0-.61-.11-.9-.59-.9h-.48a5,5,0,0,0-1,.18v.07c.79.06.71.82.71,2.2v1.88c0,1,0,2-.84,2.25v.07h3V52c-.85-.2-.85-1.27-.85-2.26V47.33a3.12,3.12,0,0,1,2.24-1.61c.79.14.82.82.82,2.2v1.85c0,1,0,2-.85,2.25v.07h3.06V52C171,51.84,171,50.77,171,49.78Z"></path><path class="cls-2" d="M202.83,50.91l0,0h-.07l0,0,0,0,0,0,0,0,0,0,0,0,0,0h-.13l0,0a3.52,3.52,0,0,1-2.08.74,3.26,3.26,0,0,1-3.11-3.17,2.52,2.52,0,0,1,0-.48h5.46A2.63,2.63,0,0,0,200,45.47h-.47A3.33,3.33,0,0,0,196,48.79a3.25,3.25,0,0,0,3.36,3.43h.48a4.25,4.25,0,0,0,3.1-1.29l-.09,0Zm-1.52-3.16h-4.05a2.47,2.47,0,0,1,2.32-2.1A2.2,2.2,0,0,1,201.31,47.75Z"></path><path class="cls-2" d="M209.27,45.46h-.48a3.17,3.17,0,0,0-2.11.9c0-.59-.11-.88-.59-.88h-.48a5,5,0,0,0-1,.18v.07c.79.06.71.82.71,2.2v1.88c0,1,0,2-.84,2.25v.07h3.18V52c-1-.2-1-1.27-1-2.26V47.33a3,3,0,0,1,2.13-1.61c.17.06-.15.22-.15.63a.67.67,0,0,0,.66.67h.48a.65.65,0,0,0,.66-.66C210.45,46,210.18,45.46,209.27,45.46Z"></path><path class="cls-2" d="M226.54,45c-.12-1.32,1-1.88,2.18-1.91a3.17,3.17,0,0,1,2.77,1.85h.56l-.47-2.07H231a1.43,1.43,0,0,1-.59.13,14.54,14.54,0,0,0-1.52-.11h-.47c-1.5,0-2.92.89-2.92,2.36,0,3.17,5.59,2.28,5.85,4.76a1.34,1.34,0,0,1,0,.19c0,1.14-.89,1.85-2.6,1.86a3.21,3.21,0,0,1-2.88-1.84h-.55l.47,2.08h.63a1.45,1.45,0,0,1,.59-.12l1.06.09h.43l.62,0c2,0,3.27-.87,3.27-2.42C232.35,46.29,226.73,47.24,226.54,45Z"></path><path class="cls-2" d="M238,51.36l0,0v0l0,0v0l0,0,0,0,0,0v0l0,0v0l0,0v0l-.05,0s0,0,0,0l0,0s0,0,0,0l0,0a1,1,0,0,1-.77.58c-.67-.15-.76-.71-.76-1.35v-5h1.52v-.13h-.47l-1.05,0V44.35h-.61c-.26.65-.28,1.06-.83,1.06H234v.19h.71V50.5c0,1,.39,1.74,1.59,1.72h.47a1.41,1.41,0,0,0,1.38-.85l-.07,0Z"></path><path class="cls-2" d="M241.68,49.78v-2.1c0-1.51.18-2.22-.57-2.22h-.48a5.15,5.15,0,0,0-1,.18v.07c.8.06.72.82.72,2.2v1.88c0,1,0,2-.85,2.25v.07h3.06V52C241.68,51.84,241.68,50.77,241.68,49.78Z"></path><path class="cls-2" d="M248,51.36l0,0v0l0,0v0l0,0,0,0,0,0v0l0,0v0l0,0v0l-.05,0s0,0,0,0l0,0s0,0,0,0l0,0a1,1,0,0,1-.77.58c-.67-.15-.76-.71-.76-1.35v-5h1.52v-.13h-.47l-1.05,0V44.35h-.61c-.26.65-.29,1.06-.83,1.06h-.63v.19h.71V50.5c0,1,.39,1.74,1.59,1.72h.47a1.41,1.41,0,0,0,1.38-.85l-.07,0Z"></path><path class="cls-2" d="M256.12,50.91l0,0H256l0,0,0,0,0,0,0,0,0,0,0,0,0,0h-.13l0,0a3.48,3.48,0,0,1-2.09.78,3.24,3.24,0,0,1-3-3.18A2.51,2.51,0,0,1,253,45.66a3.08,3.08,0,0,1,2.31,1.85h.55l-.47-2.07h-.63a1,1,0,0,1-.44.12,8,8,0,0,0-1.08-.1h-.47a3.33,3.33,0,0,0-3.48,3.35,3.29,3.29,0,0,0,3.36,3.43h.48a4.13,4.13,0,0,0,3.1-1.29l-.09,0Z"></path><path class="cls-2" d="M264.32,49.78V47.89c0-1.51-.07-2.43-1.7-2.43h-.47a3.48,3.48,0,0,0-2.25.94v-2c0-1.51.18-2.23-.57-2.23h-.48a4.66,4.66,0,0,0-1,.19v.06c.8.07.72.82.72,2.2v5.14c0,1,0,2-.85,2.25v.07h3.06V52c-.85-.2-.85-1.27-.85-2.26V47.35a3.06,3.06,0,0,1,2.24-1.63c.78.14.81.82.81,2.2v1.85c0,1,0,2-.84,2.25v.07h3.05V52C264.32,51.84,264.32,50.77,264.32,49.78Z"></path><path class="cls-2" d="M96.57,50.07h-.5a3.07,3.07,0,0,1-2.94,1.85H91.75c-.93-.08-.91-1-.91-2V47.5H92c.75,0,1.63.24,1.8,1h.54V46.25h-.54c-.22,1-1.55,1-2.34,1h-.63V45.17c0-1,0-2,1-2h1A2.9,2.9,0,0,1,95.54,45h.56l-.47-2.16H95a8,8,0,0,1-2.14.14H88.47V43c.85.2,1,1.13,1,2.12V49.9c0,1-.1,1.92-1,2.12v.07h6.31a2.4,2.4,0,0,1,.74.11h.63l.47-2.16Z"></path><path class="cls-2" d="M126.75,51.92h-.16s0,0,0,0h-.26c-.63-.16-.58-1-.58-2.13v-2a2.12,2.12,0,0,0-2.4-2.32h-.48c-1.37,0-2.49.82-2.49,1.56a.48.48,0,0,0,.52.49h.48c.26,0,.52-.14.52-.4a1.94,1.94,0,0,1,.12-1,1.4,1.4,0,0,1,1.13-.51,1.35,1.35,0,0,1,.82.42,2.78,2.78,0,0,1,.41,1.7,8.07,8.07,0,0,1-1.83.68c-1.33.39-2.64.76-2.64,2.09a1.76,1.76,0,0,0,1.93,1.72h.48a3.05,3.05,0,0,0,2.07-.94c0,.64.19.93.8.93h.48A3.42,3.42,0,0,0,126.8,52v0Zm-5.6-1.77c0-.91.83-1.22,1.84-1.53.43-.13.9-.27,1.34-.45v2.31a2.7,2.7,0,0,1-2,1A1.36,1.36,0,0,1,121.15,50.15Z"></path><path class="cls-2" d="M162.56,43H159.3V43c.85.2.95,1.13.95,2.12V49.9c0,1-.1,1.92-.95,2.12v.07h3.32V52c-.85-.2-1-1.14-1-2.13V45.17c0-1,.11-1.93,1-2.12V43Z"></path><path class="cls-2" d="M186.62,50.07h-.5a3.06,3.06,0,0,1-2.94,1.85h-1.37c-.94-.08-.92-1-.92-2V47.5h1.17c.76,0,1.63.24,1.8,1h.54V46.25h-.54c-.22,1-1.55,1-2.34,1h-.63V45.17c0-1,0-2,1-2h.95A2.93,2.93,0,0,1,185.6,45h.55l-.47-2.16h-.63a8,8,0,0,1-2.14.14h-4.39V43c.85.2.95,1.13.95,2.12V49.9c0,1-.1,1.92-.95,2.12v.07h6.31a2.4,2.4,0,0,1,.74.11h.63l.47-2.16Z"></path><path class="cls-2" d="M195.05,45.58h-2.38v.07c.72.45.47,1.33.12,2.25l-1.08,2.81-1.13-2.94c-.35-.92-.77-1.91.08-2.11v-.06H187.6v.07c.85.19,1.23,1.23,1.58,2.16l1.64,4.29h1L193.44,48c.35-.93.82-2.11,1.66-2.31v-.06h0Z"></path><path class="cls-2" d="M218.94,45.58h-2.38v.07a1,1,0,0,1,.46.88,4.09,4.09,0,0,1-.34,1.37l-1,2.69-1.11-2.82a5,5,0,0,1-.47-1.51.56.56,0,0,1,.48-.6v-.06h-3.06v.07c.85.19,1.27,1.25,1.64,2.16L215,52.32l-.13.33c-.33.85-.78,2-1.77,2.38a1.26,1.26,0,0,0,0-.32.65.65,0,0,0-.72-.69h-.16s0,0-.05,0H212a.71.71,0,0,0-.73.77c0,.53.45.8,1,.81h.43a1.54,1.54,0,0,0,.55-.07c1.22-.36,1.76-1.41,2.21-2.6l1-2.52.93-2.46c.36-.93.82-2.11,1.67-2.31v-.06h-.05Z"></path><path class="cls-2" d="M240.71,44.36h.48a.7.7,0,0,0,.7-.71.69.69,0,0,0-.7-.69h-.48a.7.7,0,1,0,0,1.39Z"></path><path class="cls-2" d="M279.55,4.3H277V2.93h6.75V4.3h-2.57v7.57h-1.63Z"></path><path class="cls-2" d="M292.32,8.23c-.06-1.16-.12-2.55-.11-3.76h0c-.29,1.09-.66,2.3-1.06,3.42l-1.3,3.88h-1.26L287.35,8c-.34-1.14-.66-2.37-.9-3.48h0c0,1.17-.1,2.59-.16,3.81l-.2,3.59h-1.53l.6-8.94h2.15l1.17,3.6c.31,1,.59,2.11.82,3.1h0c.24-1,.54-2.07.89-3.12l1.23-3.58h2.12l.52,8.94h-1.59Z"></path></g></g></svg> 